<svg xmlns="http://www.w3.org/2000/svg" width="520" height="330" viewBox="0 0 520 330">
<defs>
<marker id="arrow" viewBox="0 0 10 10" refX="8.4" refY="5" markerWidth="6" markerHeight="6" orient="auto">
<path d="M 0 0 L 10 5 L 0 10 z" fill="#202124"/>
</marker>
</defs>
<rect width="100%" height="100%" fill="#ffffff"/>
<text x="26" y="34" text-anchor="start" font-family="Arial, Microsoft YaHei, Noto Sans CJK SC, sans-serif" font-size="18" font-weight="700" fill="#202124">热图示例</text>
<rect x="98" y="82" width="46" height="34" rx="0" fill="#f7fbff" stroke="#ffffff" stroke-width="1"/>
<rect x="150" y="82" width="46" height="34" rx="0" fill="#deebf7" stroke="#ffffff" stroke-width="1"/>
<rect x="202" y="82" width="46" height="34" rx="0" fill="#9ecae1" stroke="#ffffff" stroke-width="1"/>
<rect x="254" y="82" width="46" height="34" rx="0" fill="#4292c6" stroke="#ffffff" stroke-width="1"/>
<rect x="306" y="82" width="46" height="34" rx="0" fill="#084594" stroke="#ffffff" stroke-width="1"/>
<rect x="358" y="82" width="46" height="34" rx="0" fill="#f7fbff" stroke="#ffffff" stroke-width="1"/>
<rect x="98" y="124" width="46" height="34" rx="0" fill="#deebf7" stroke="#ffffff" stroke-width="1"/>
<rect x="150" y="124" width="46" height="34" rx="0" fill="#9ecae1" stroke="#ffffff" stroke-width="1"/>
<rect x="202" y="124" width="46" height="34" rx="0" fill="#4292c6" stroke="#ffffff" stroke-width="1"/>
<rect x="254" y="124" width="46" height="34" rx="0" fill="#084594" stroke="#ffffff" stroke-width="1"/>
<rect x="306" y="124" width="46" height="34" rx="0" fill="#f7fbff" stroke="#ffffff" stroke-width="1"/>
<rect x="358" y="124" width="46" height="34" rx="0" fill="#deebf7" stroke="#ffffff" stroke-width="1"/>
<rect x="98" y="166" width="46" height="34" rx="0" fill="#9ecae1" stroke="#ffffff" stroke-width="1"/>
<rect x="150" y="166" width="46" height="34" rx="0" fill="#4292c6" stroke="#ffffff" stroke-width="1"/>
<rect x="202" y="166" width="46" height="34" rx="0" fill="#084594" stroke="#ffffff" stroke-width="1"/>
<rect x="254" y="166" width="46" height="34" rx="0" fill="#f7fbff" stroke="#ffffff" stroke-width="1"/>
<rect x="306" y="166" width="46" height="34" rx="0" fill="#deebf7" stroke="#ffffff" stroke-width="1"/>
<rect x="358" y="166" width="46" height="34" rx="0" fill="#9ecae1" stroke="#ffffff" stroke-width="1"/>
<rect x="98" y="208" width="46" height="34" rx="0" fill="#4292c6" stroke="#ffffff" stroke-width="1"/>
<rect x="150" y="208" width="46" height="34" rx="0" fill="#084594" stroke="#ffffff" stroke-width="1"/>
<rect x="202" y="208" width="46" height="34" rx="0" fill="#f7fbff" stroke="#ffffff" stroke-width="1"/>
<rect x="254" y="208" width="46" height="34" rx="0" fill="#deebf7" stroke="#ffffff" stroke-width="1"/>
<rect x="306" y="208" width="46" height="34" rx="0" fill="#9ecae1" stroke="#ffffff" stroke-width="1"/>
<rect x="358" y="208" width="46" height="34" rx="0" fill="#4292c6" stroke="#ffffff" stroke-width="1"/>
<text x="266" y="285" text-anchor="middle" font-family="Arial, Microsoft YaHei, Noto Sans CJK SC, sans-serif" font-size="12" font-weight="400" fill="#5f6368">heatmap / genomics / compact labels</text>
</svg>