<svg xmlns="http://www.w3.org/2000/svg" width="520" height="330" viewBox="0 0 520 330">
<defs>
<marker id="arrow" viewBox="0 0 10 10" refX="8.4" refY="5" markerWidth="6" markerHeight="6" orient="auto">
<path d="M 0 0 L 10 5 L 0 10 z" fill="#202124"/>
</marker>
</defs>
<rect width="100%" height="100%" fill="#ffffff"/>
<text x="26" y="34" text-anchor="start" font-family="Arial, Microsoft YaHei, Noto Sans CJK SC, sans-serif" font-size="18" font-weight="700" fill="#202124">趋势图示例</text>
<line x1="76" y1="254" x2="456" y2="254" stroke="#202124" stroke-width="1.2" stroke-linecap="round"/>
<line x1="76" y1="74" x2="76" y2="254" stroke="#202124" stroke-width="1.2" stroke-linecap="round"/>
<polyline points="95,230 190,210 285,190 380,172" fill="none" stroke="#272727" stroke-width="2"/>
<circle cx="95" cy="230" r="4" fill="#272727" stroke="white" stroke-width="0.7"/>
<circle cx="190" cy="210" r="4" fill="#272727" stroke="white" stroke-width="0.7"/>
<circle cx="285" cy="190" r="4" fill="#272727" stroke="white" stroke-width="0.7"/>
<circle cx="380" cy="172" r="4" fill="#272727" stroke="white" stroke-width="0.7"/>
<polyline points="95,230 190,195 285,165 380,130" fill="none" stroke="#E28E2C" stroke-width="2"/>
<circle cx="95" cy="230" r="4" fill="#E28E2C" stroke="white" stroke-width="0.7"/>
<circle cx="190" cy="195" r="4" fill="#E28E2C" stroke="white" stroke-width="0.7"/>
<circle cx="285" cy="165" r="4" fill="#E28E2C" stroke="white" stroke-width="0.7"/>
<circle cx="380" cy="130" r="4" fill="#E28E2C" stroke="white" stroke-width="0.7"/>
<polyline points="95,230 190,185 285,148 380,100" fill="none" stroke="#D24B40" stroke-width="2"/>
<circle cx="95" cy="230" r="4" fill="#D24B40" stroke="white" stroke-width="0.7"/>
<circle cx="190" cy="185" r="4" fill="#D24B40" stroke="white" stroke-width="0.7"/>
<circle cx="285" cy="148" r="4" fill="#D24B40" stroke="white" stroke-width="0.7"/>
<circle cx="380" cy="100" r="4" fill="#D24B40" stroke="white" stroke-width="0.7"/>
<polyline points="95,230 190,205 285,178 380,145" fill="none" stroke="#5B8FD6" stroke-width="2"/>
<circle cx="95" cy="230" r="4" fill="#5B8FD6" stroke="white" stroke-width="0.7"/>
<circle cx="190" cy="205" r="4" fill="#5B8FD6" stroke="white" stroke-width="0.7"/>
<circle cx="285" cy="178" r="4" fill="#5B8FD6" stroke="white" stroke-width="0.7"/>
<circle cx="380" cy="145" r="4" fill="#5B8FD6" stroke="white" stroke-width="0.7"/>
<text x="266" y="310" text-anchor="middle" font-family="Arial, Microsoft YaHei, Noto Sans CJK SC, sans-serif" font-size="12" font-weight="400" fill="#5f6368">trend / clinical / shared axes</text>
</svg>