<svg xmlns="http://www.w3.org/2000/svg" width="520" height="330" viewBox="0 0 520 330">
<defs>
<marker id="arrow" viewBox="0 0 10 10" refX="8.4" refY="5" markerWidth="6" markerHeight="6" orient="auto">
<path d="M 0 0 L 10 5 L 0 10 z" fill="#202124"/>
</marker>
</defs>
<rect width="100%" height="100%" fill="#ffffff"/>
<text x="26" y="34" text-anchor="start" font-family="Arial, Microsoft YaHei, Noto Sans CJK SC, sans-serif" font-size="18" font-weight="700" fill="#202124">机制图示例</text>
<rect x="45" y="138" width="68" height="54" rx="8" fill="#33B5A5" stroke="#33B5A5" stroke-width="1.3"/>
<text x="79" y="171" text-anchor="middle" font-family="Arial, Microsoft YaHei, Noto Sans CJK SC, sans-serif" font-size="13" font-weight="700" fill="#202124">刺激</text>
<line x1="113" y1="165" x2="136" y2="165" stroke="#202124" stroke-width="1.2" stroke-linecap="round" marker-end="url(#arrow)"/>
<rect x="136" y="138" width="68" height="54" rx="8" fill="#77D7D1" stroke="#77D7D1" stroke-width="1.3"/>
<text x="170" y="171" text-anchor="middle" font-family="Arial, Microsoft YaHei, Noto Sans CJK SC, sans-serif" font-size="13" font-weight="700" fill="#202124">受体</text>
<line x1="204" y1="165" x2="227" y2="165" stroke="#202124" stroke-width="1.2" stroke-linecap="round" marker-end="url(#arrow)"/>
<rect x="227" y="138" width="68" height="54" rx="8" fill="#7C6CCF" stroke="#7C6CCF" stroke-width="1.3"/>
<text x="261" y="171" text-anchor="middle" font-family="Arial, Microsoft YaHei, Noto Sans CJK SC, sans-serif" font-size="13" font-weight="700" fill="#202124">信号轴</text>
<line x1="295" y1="165" x2="318" y2="165" stroke="#202124" stroke-width="1.2" stroke-linecap="round" marker-end="url(#arrow)"/>
<rect x="318" y="138" width="68" height="54" rx="8" fill="#B9A7E8" stroke="#B9A7E8" stroke-width="1.3"/>
<text x="352" y="171" text-anchor="middle" font-family="Arial, Microsoft YaHei, Noto Sans CJK SC, sans-serif" font-size="13" font-weight="700" fill="#202124">效应器</text>
<line x1="386" y1="165" x2="409" y2="165" stroke="#202124" stroke-width="1.2" stroke-linecap="round" marker-end="url(#arrow)"/>
<rect x="409" y="138" width="68" height="54" rx="8" fill="#E53935" stroke="#E53935" stroke-width="1.3"/>
<text x="443" y="171" text-anchor="middle" font-family="Arial, Microsoft YaHei, Noto Sans CJK SC, sans-serif" font-size="13" font-weight="700" fill="#202124">表型</text>
<text x="266" y="258" text-anchor="middle" font-family="Arial, Microsoft YaHei, Noto Sans CJK SC, sans-serif" font-size="12" font-weight="400" fill="#5f6368">mechanism / material / pale nodes</text>
</svg>