<svg xmlns="http://www.w3.org/2000/svg" width="880" height="434" viewBox="0 0 880 434">
<defs>
<marker id="arrow" viewBox="0 0 10 10" refX="8.4" refY="5" markerWidth="5.5" markerHeight="5.5" orient="auto">
<path d="M 0 0 L 10 5 L 0 10 z" fill="#202124"/>
</marker>
</defs>
<rect width="100%" height="100%" fill="#ffffff"/>
<text x="28" y="34" text-anchor="start" font-family="Arial, Microsoft YaHei, Noto Sans CJK SC, sans-serif" font-size="18" font-weight="700" fill="#202124">示意图色系对比</text>
<text x="28" y="56" text-anchor="start" font-family="Arial, Microsoft YaHei, Noto Sans CJK SC, sans-serif" font-size="12" font-weight="400" fill="#5f6368">同一套节点结构，仅替换色系</text>
<rect x="28" y="62" width="260" height="158" rx="0" fill="#ffffff" stroke="#d6d9dd" stroke-width="1"/>
<text x="41" y="84" text-anchor="start" font-family="Arial, Microsoft YaHei, Noto Sans CJK SC, sans-serif" font-size="13" font-weight="700" fill="#202124">nmi-pastel</text>
<text x="41" y="102" text-anchor="start" font-family="Arial, Microsoft YaHei, Noto Sans CJK SC, sans-serif" font-size="10" font-weight="400" fill="#5f6368">NMI低饱和</text>
<rect x="48" y="141" width="45" height="34" rx="6" fill="#484878" stroke="#484878" stroke-width="1.1"/>
<text x="70.5" y="163" text-anchor="middle" font-family="Arial, Microsoft YaHei, Noto Sans CJK SC, sans-serif" font-size="10" font-weight="700" fill="#202124">输入</text>
<line x1="93" y1="158" x2="106" y2="158" stroke="#202124" stroke-width="1.1" stroke-linecap="round" marker-end="url(#arrow)"/>
<rect x="106" y="141" width="45" height="34" rx="6" fill="#7884B4" stroke="#7884B4" stroke-width="1.1"/>
<text x="128.5" y="163" text-anchor="middle" font-family="Arial, Microsoft YaHei, Noto Sans CJK SC, sans-serif" font-size="10" font-weight="700" fill="#202124">编码</text>
<line x1="151" y1="158" x2="164" y2="158" stroke="#202124" stroke-width="1.1" stroke-linecap="round" marker-end="url(#arrow)"/>
<rect x="164" y="141" width="45" height="34" rx="6" fill="#B4C0E4" stroke="#B4C0E4" stroke-width="1.1"/>
<text x="186.5" y="163" text-anchor="middle" font-family="Arial, Microsoft YaHei, Noto Sans CJK SC, sans-serif" font-size="10" font-weight="700" fill="#202124">融合</text>
<line x1="209" y1="158" x2="222" y2="158" stroke="#202124" stroke-width="1.1" stroke-linecap="round" marker-end="url(#arrow)"/>
<rect x="222" y="141" width="45" height="34" rx="6" fill="#E4CCD8" stroke="#E4CCD8" stroke-width="1.1"/>
<text x="244.5" y="163" text-anchor="middle" font-family="Arial, Microsoft YaHei, Noto Sans CJK SC, sans-serif" font-size="10" font-weight="700" fill="#202124">输出</text>
<rect x="204" y="80" width="10" height="10" rx="2" fill="#484878" stroke="#ffffff" stroke-width="0.5"/>
<rect x="218" y="80" width="10" height="10" rx="2" fill="#7884B4" stroke="#ffffff" stroke-width="0.5"/>
<rect x="232" y="80" width="10" height="10" rx="2" fill="#B4C0E4" stroke="#ffffff" stroke-width="0.5"/>
<rect x="246" y="80" width="10" height="10" rx="2" fill="#E4CCD8" stroke="#ffffff" stroke-width="0.5"/>
<rect x="310" y="62" width="260" height="158" rx="0" fill="#ffffff" stroke="#d6d9dd" stroke-width="1"/>
<text x="323" y="84" text-anchor="start" font-family="Arial, Microsoft YaHei, Noto Sans CJK SC, sans-serif" font-size="13" font-weight="700" fill="#202124">semantic</text>
<text x="323" y="102" text-anchor="start" font-family="Arial, Microsoft YaHei, Noto Sans CJK SC, sans-serif" font-size="10" font-weight="400" fill="#5f6368">语义对比</text>
<rect x="330" y="141" width="45" height="34" rx="6" fill="#0F4D92" stroke="#0F4D92" stroke-width="1.1"/>
<text x="352.5" y="163" text-anchor="middle" font-family="Arial, Microsoft YaHei, Noto Sans CJK SC, sans-serif" font-size="10" font-weight="700" fill="#202124">输入</text>
<line x1="375" y1="158" x2="388" y2="158" stroke="#202124" stroke-width="1.1" stroke-linecap="round" marker-end="url(#arrow)"/>
<rect x="388" y="141" width="45" height="34" rx="6" fill="#8BCF8B" stroke="#8BCF8B" stroke-width="1.1"/>
<text x="410.5" y="163" text-anchor="middle" font-family="Arial, Microsoft YaHei, Noto Sans CJK SC, sans-serif" font-size="10" font-weight="700" fill="#202124">编码</text>
<line x1="433" y1="158" x2="446" y2="158" stroke="#202124" stroke-width="1.1" stroke-linecap="round" marker-end="url(#arrow)"/>
<rect x="446" y="141" width="45" height="34" rx="6" fill="#B64342" stroke="#B64342" stroke-width="1.1"/>
<text x="468.5" y="163" text-anchor="middle" font-family="Arial, Microsoft YaHei, Noto Sans CJK SC, sans-serif" font-size="10" font-weight="700" fill="#202124">融合</text>
<line x1="491" y1="158" x2="504" y2="158" stroke="#202124" stroke-width="1.1" stroke-linecap="round" marker-end="url(#arrow)"/>
<rect x="504" y="141" width="45" height="34" rx="6" fill="#42949E" stroke="#42949E" stroke-width="1.1"/>
<text x="526.5" y="163" text-anchor="middle" font-family="Arial, Microsoft YaHei, Noto Sans CJK SC, sans-serif" font-size="10" font-weight="700" fill="#202124">输出</text>
<rect x="486" y="80" width="10" height="10" rx="2" fill="#0F4D92" stroke="#ffffff" stroke-width="0.5"/>
<rect x="500" y="80" width="10" height="10" rx="2" fill="#8BCF8B" stroke="#ffffff" stroke-width="0.5"/>
<rect x="514" y="80" width="10" height="10" rx="2" fill="#B64342" stroke="#ffffff" stroke-width="0.5"/>
<rect x="528" y="80" width="10" height="10" rx="2" fill="#42949E" stroke="#ffffff" stroke-width="0.5"/>
<rect x="592" y="62" width="260" height="158" rx="0" fill="#ffffff" stroke="#d6d9dd" stroke-width="1"/>
<text x="605" y="84" text-anchor="start" font-family="Arial, Microsoft YaHei, Noto Sans CJK SC, sans-serif" font-size="13" font-weight="700" fill="#202124">material</text>
<text x="605" y="102" text-anchor="start" font-family="Arial, Microsoft YaHei, Noto Sans CJK SC, sans-serif" font-size="10" font-weight="400" fill="#5f6368">材料机制</text>
<rect x="612" y="141" width="45" height="34" rx="6" fill="#33B5A5" stroke="#33B5A5" stroke-width="1.1"/>
<text x="634.5" y="163" text-anchor="middle" font-family="Arial, Microsoft YaHei, Noto Sans CJK SC, sans-serif" font-size="10" font-weight="700" fill="#202124">输入</text>
<line x1="657" y1="158" x2="670" y2="158" stroke="#202124" stroke-width="1.1" stroke-linecap="round" marker-end="url(#arrow)"/>
<rect x="670" y="141" width="45" height="34" rx="6" fill="#77D7D1" stroke="#77D7D1" stroke-width="1.1"/>
<text x="692.5" y="163" text-anchor="middle" font-family="Arial, Microsoft YaHei, Noto Sans CJK SC, sans-serif" font-size="10" font-weight="700" fill="#202124">编码</text>
<line x1="715" y1="158" x2="728" y2="158" stroke="#202124" stroke-width="1.1" stroke-linecap="round" marker-end="url(#arrow)"/>
<rect x="728" y="141" width="45" height="34" rx="6" fill="#7C6CCF" stroke="#7C6CCF" stroke-width="1.1"/>
<text x="750.5" y="163" text-anchor="middle" font-family="Arial, Microsoft YaHei, Noto Sans CJK SC, sans-serif" font-size="10" font-weight="700" fill="#202124">融合</text>
<line x1="773" y1="158" x2="786" y2="158" stroke="#202124" stroke-width="1.1" stroke-linecap="round" marker-end="url(#arrow)"/>
<rect x="786" y="141" width="45" height="34" rx="6" fill="#B9A7E8" stroke="#B9A7E8" stroke-width="1.1"/>
<text x="808.5" y="163" text-anchor="middle" font-family="Arial, Microsoft YaHei, Noto Sans CJK SC, sans-serif" font-size="10" font-weight="700" fill="#202124">输出</text>
<rect x="768" y="80" width="10" height="10" rx="2" fill="#33B5A5" stroke="#ffffff" stroke-width="0.5"/>
<rect x="782" y="80" width="10" height="10" rx="2" fill="#77D7D1" stroke="#ffffff" stroke-width="0.5"/>
<rect x="796" y="80" width="10" height="10" rx="2" fill="#7C6CCF" stroke="#ffffff" stroke-width="0.5"/>
<rect x="810" y="80" width="10" height="10" rx="2" fill="#B9A7E8" stroke="#ffffff" stroke-width="0.5"/>
<rect x="28" y="242" width="260" height="158" rx="0" fill="#ffffff" stroke="#d6d9dd" stroke-width="1"/>
<text x="41" y="264" text-anchor="start" font-family="Arial, Microsoft YaHei, Noto Sans CJK SC, sans-serif" font-size="13" font-weight="700" fill="#202124">clinical</text>
<text x="41" y="282" text-anchor="start" font-family="Arial, Microsoft YaHei, Noto Sans CJK SC, sans-serif" font-size="10" font-weight="400" fill="#5f6368">临床随访</text>
<rect x="48" y="321" width="45" height="34" rx="6" fill="#272727" stroke="#272727" stroke-width="1.1"/>
<text x="70.5" y="343" text-anchor="middle" font-family="Arial, Microsoft YaHei, Noto Sans CJK SC, sans-serif" font-size="10" font-weight="700" fill="#202124">输入</text>
<line x1="93" y1="338" x2="106" y2="338" stroke="#202124" stroke-width="1.1" stroke-linecap="round" marker-end="url(#arrow)"/>
<rect x="106" y="321" width="45" height="34" rx="6" fill="#E28E2C" stroke="#E28E2C" stroke-width="1.1"/>
<text x="128.5" y="343" text-anchor="middle" font-family="Arial, Microsoft YaHei, Noto Sans CJK SC, sans-serif" font-size="10" font-weight="700" fill="#202124">编码</text>
<line x1="151" y1="338" x2="164" y2="338" stroke="#202124" stroke-width="1.1" stroke-linecap="round" marker-end="url(#arrow)"/>
<rect x="164" y="321" width="45" height="34" rx="6" fill="#D24B40" stroke="#D24B40" stroke-width="1.1"/>
<text x="186.5" y="343" text-anchor="middle" font-family="Arial, Microsoft YaHei, Noto Sans CJK SC, sans-serif" font-size="10" font-weight="700" fill="#202124">融合</text>
<line x1="209" y1="338" x2="222" y2="338" stroke="#202124" stroke-width="1.1" stroke-linecap="round" marker-end="url(#arrow)"/>
<rect x="222" y="321" width="45" height="34" rx="6" fill="#5B8FD6" stroke="#5B8FD6" stroke-width="1.1"/>
<text x="244.5" y="343" text-anchor="middle" font-family="Arial, Microsoft YaHei, Noto Sans CJK SC, sans-serif" font-size="10" font-weight="700" fill="#202124">输出</text>
<rect x="204" y="260" width="10" height="10" rx="2" fill="#272727" stroke="#ffffff" stroke-width="0.5"/>
<rect x="218" y="260" width="10" height="10" rx="2" fill="#E28E2C" stroke="#ffffff" stroke-width="0.5"/>
<rect x="232" y="260" width="10" height="10" rx="2" fill="#D24B40" stroke="#ffffff" stroke-width="0.5"/>
<rect x="246" y="260" width="10" height="10" rx="2" fill="#5B8FD6" stroke="#ffffff" stroke-width="0.5"/>
<rect x="310" y="242" width="260" height="158" rx="0" fill="#ffffff" stroke="#d6d9dd" stroke-width="1"/>
<text x="323" y="264" text-anchor="start" font-family="Arial, Microsoft YaHei, Noto Sans CJK SC, sans-serif" font-size="13" font-weight="700" fill="#202124">genomics</text>
<text x="323" y="282" text-anchor="start" font-family="Arial, Microsoft YaHei, Noto Sans CJK SC, sans-serif" font-size="10" font-weight="400" fill="#5f6368">组学系统</text>
<rect x="330" y="321" width="45" height="34" rx="6" fill="#4D4D4D" stroke="#4D4D4D" stroke-width="1.1"/>
<text x="352.5" y="343" text-anchor="middle" font-family="Arial, Microsoft YaHei, Noto Sans CJK SC, sans-serif" font-size="10" font-weight="700" fill="#202124">输入</text>
<line x1="375" y1="338" x2="388" y2="338" stroke="#202124" stroke-width="1.1" stroke-linecap="round" marker-end="url(#arrow)"/>
<rect x="388" y="321" width="45" height="34" rx="6" fill="#8F8F8F" stroke="#8F8F8F" stroke-width="1.1"/>
<text x="410.5" y="343" text-anchor="middle" font-family="Arial, Microsoft YaHei, Noto Sans CJK SC, sans-serif" font-size="10" font-weight="700" fill="#202124">编码</text>
<line x1="433" y1="338" x2="446" y2="338" stroke="#202124" stroke-width="1.1" stroke-linecap="round" marker-end="url(#arrow)"/>
<rect x="446" y="321" width="45" height="34" rx="6" fill="#D9544D" stroke="#D9544D" stroke-width="1.1"/>
<text x="468.5" y="343" text-anchor="middle" font-family="Arial, Microsoft YaHei, Noto Sans CJK SC, sans-serif" font-size="10" font-weight="700" fill="#202124">融合</text>
<line x1="491" y1="338" x2="504" y2="338" stroke="#202124" stroke-width="1.1" stroke-linecap="round" marker-end="url(#arrow)"/>
<rect x="504" y="321" width="45" height="34" rx="6" fill="#5B7FCA" stroke="#5B7FCA" stroke-width="1.1"/>
<text x="526.5" y="343" text-anchor="middle" font-family="Arial, Microsoft YaHei, Noto Sans CJK SC, sans-serif" font-size="10" font-weight="700" fill="#202124">输出</text>
<rect x="486" y="260" width="10" height="10" rx="2" fill="#4D4D4D" stroke="#ffffff" stroke-width="0.5"/>
<rect x="500" y="260" width="10" height="10" rx="2" fill="#8F8F8F" stroke="#ffffff" stroke-width="0.5"/>
<rect x="514" y="260" width="10" height="10" rx="2" fill="#D9544D" stroke="#ffffff" stroke-width="0.5"/>
<rect x="528" y="260" width="10" height="10" rx="2" fill="#5B7FCA" stroke="#ffffff" stroke-width="0.5"/>
</svg>